<?xml version="1.0" encoding="UTF-8"?>
<svg width="149px" height="40px" viewBox="0 0 149 40" version="1.1" xmlns="http://www.w3.org/2000/svg" xmlns:xlink="http://www.w3.org/1999/xlink">
    <!-- Generator: Sketch 60.1 (88133) - https://sketch.com -->
    <title>Group 3</title>
    <desc>Created with Sketch.</desc>
    <defs>
        <path d="M73.5446075,1.66437383 C72.6738879,2.53650467 72.2392336,3.66124299 72.2392336,5.04282243 L72.2392336,5.04282243 C72.2392336,6.39053271 72.6738879,7.50680374 73.5446075,8.39586916 L73.5446075,8.39586916 C74.4153271,9.28211215 75.5245421,9.72664486 76.8722523,9.72664486 L76.8722523,9.72664486 C78.2199626,9.72664486 79.3291776,9.28211215 80.1998972,8.39586916 L80.1998972,8.39586916 C81.0692056,7.50680374 81.5066822,6.39053271 81.5066822,5.04282243 L81.5066822,5.04282243 C81.5066822,3.66124299 81.0692056,2.53650467 80.1998972,1.66437383 L80.1998972,1.66437383 C79.3291776,0.793654206 78.2199626,0.359 76.8722523,0.359 L76.8722523,0.359 C75.5245421,0.359 74.4153271,0.793654206 73.5446075,1.66437383 L73.5446075,1.66437383 Z M140.049523,2.72560748 L140.049523,16.1335607 C139.095542,14.9185047 137.936935,13.9814579 136.573701,13.325243 L136.573701,13.325243 C135.210467,12.6662056 133.673654,12.3388037 131.964673,12.3388037 L131.964673,12.3388037 C129.531738,12.3388037 127.39657,12.8976449 125.554935,14.0153271 L125.554935,14.0153271 C123.716121,15.1330093 122.28515,16.7093364 121.266252,18.7485421 L121.266252,18.7485421 C120.248766,20.783514 119.739318,23.1501215 119.739318,25.8469533 L119.739318,25.8469533 C119.739318,28.5734206 120.255822,30.9809533 121.291654,33.0681402 L121.291654,33.0681402 C122.326075,35.1539159 123.781037,36.7725794 125.65372,37.9227196 L125.65372,37.9227196 C127.527813,39.0728598 129.69685,39.6486355 132.162243,39.6486355 L132.162243,39.6486355 C133.837355,39.6486355 135.340299,39.3282897 136.672486,38.6875981 L136.672486,38.6875981 C138.003262,38.0469065 139.128,37.1013925 140.049523,35.8538785 L140.049523,35.8538785 L140.049523,39.3042991 L148.824458,39.3042991 L148.824458,2.72560748 L140.049523,2.72560748 Z M129.95228,30.8991028 C128.883991,29.6671121 128.350551,28.063972 128.350551,26.0925047 L128.350551,26.0925047 C128.350551,24.1210374 128.883991,22.5178972 129.95228,21.2859065 L129.95228,21.2859065 C131.02057,20.0539159 132.409206,19.437215 134.118187,19.437215 L134.118187,19.437215 C135.825757,19.437215 137.205925,20.0454486 138.258692,21.2619159 L138.258692,21.2619159 C139.311458,22.476972 139.83643,24.0871682 139.83643,26.0925047 L139.83643,26.0925047 C139.83643,28.063972 139.311458,29.6671121 138.258692,30.8991028 L138.258692,30.8991028 C137.205925,32.1310935 135.825757,32.7463832 134.118187,32.7463832 L134.118187,32.7463832 C132.409206,32.7463832 131.02057,32.1310935 129.95228,30.8991028 L129.95228,30.8991028 Z M51.2728131,13.3774579 C49.6795514,14.3794206 48.4546168,15.8668411 47.6008318,17.8397196 L47.6008318,17.8397196 C46.9417944,15.9670374 45.8410467,14.5050187 44.2985888,13.4522523 L44.2985888,13.4522523 C42.7518972,12.399486 40.8961495,11.874514 38.7271121,11.874514 L38.7271121,11.874514 C36.7881028,11.874514 35.0875888,12.2767103 33.6241589,13.082514 L33.6241589,13.082514 C32.1621402,13.8869065 30.9710748,15.0624486 30.0495514,16.607729 L30.0495514,16.607729 L30.0495514,12.2202617 L21.3254206,12.2202617 L21.3254206,38.8894019 L30.0495514,38.8894019 L30.0495514,25.7255888 C30.0495514,23.9531028 30.5110187,22.5136636 31.4311308,21.4129159 L31.4311308,21.4129159 C32.351243,20.3121682 33.5832336,19.7448598 35.128514,19.7124019 L35.128514,19.7124019 C36.4748131,19.7124019 37.5431028,20.1470561 38.331972,21.0191869 L38.331972,21.0191869 C39.1208411,21.8899065 39.5145701,23.080972 39.5145701,24.5937944 L39.5145701,24.5937944 L39.5145701,38.8894019 L48.2909159,38.8894019 L48.2909159,25.7255888 C48.2909159,23.9531028 48.7425047,22.5136636 49.6470935,21.4129159 L49.6470935,21.4129159 C50.550271,20.3121682 51.7737944,19.7448598 53.3176636,19.7124019 L53.3176636,19.7124019 C54.6653738,19.7124019 55.7336636,20.1470561 56.5225327,21.0191869 L56.5225327,21.0191869 C57.3114019,21.8899065 57.7065421,23.080972 57.7065421,24.5937944 L57.7065421,24.5937944 L57.7065421,38.8894019 L66.4800654,38.8894019 L66.4800654,22.0775981 C66.4800654,18.9574019 65.610757,16.4750748 63.8693178,14.6348505 L63.8693178,14.6348505 C62.1264673,12.7946262 59.8092523,11.874514 56.9176729,11.874514 L56.9176729,11.874514 C54.7486355,11.874514 52.867486,12.3754953 51.2728131,13.3774579 L51.2728131,13.3774579 Z M99.0791308,13.4720093 C97.5846542,14.2622897 96.3597196,15.4279533 95.4071495,16.9718224 L95.4071495,16.9718224 L95.4071495,12.6337477 L86.632215,12.6337477 L86.632215,39.3042991 L95.4071495,39.3042991 L95.4071495,25.2048505 C95.5722617,23.6934393 96.1212243,22.476972 97.058271,21.5568598 L97.058271,21.5568598 C97.9953178,20.6367477 99.1863832,20.159757 100.632879,20.1272991 L100.632879,20.1272991 C102.013047,20.1272991 103.113794,20.5633645 103.935121,21.4326729 L103.935121,21.4326729 C104.756449,22.3033925 105.167112,23.4972804 105.167112,25.0086916 L105.167112,25.0086916 L105.167112,39.3042991 L113.894065,39.3042991 L113.894065,22.4939065 C113.894065,19.3708879 113.013467,16.889972 111.256505,15.0497477 L111.256505,15.0497477 C109.498131,13.2095234 107.156925,12.2894112 104.231477,12.2894112 L104.231477,12.2894112 C102.291056,12.2894112 100.575019,12.6831402 99.0791308,13.4720093 L99.0791308,13.4720093 Z M72.2392336,39.3042991 L80.9633645,39.3042991 L80.9633645,12.6337477 L72.2392336,12.6337477 L72.2392336,39.3042991 Z M1.42728972,32.351243 C0.65535514,33.1415234 0.268682243,34.1604206 0.268682243,35.4093458 L0.268682243,35.4093458 C0.268682243,36.6568598 0.662411215,37.6856355 1.45128037,38.490028 L1.45128037,38.490028 C2.24014953,39.2958318 3.24211215,39.698028 4.45857944,39.698028 L4.45857944,39.698028 C5.70750467,39.698028 6.72640187,39.2958318 7.51527103,38.490028 L7.51527103,38.490028 C8.30414019,37.6856355 8.69786916,36.6568598 8.69786916,35.4093458 L8.69786916,35.4093458 C8.69786916,34.1604206 8.30414019,33.1415234 7.51527103,32.351243 L7.51527103,32.351243 C6.72640187,31.563785 5.70750467,31.1686449 4.45857944,31.1686449 L4.45857944,31.1686449 C3.20965421,31.1686449 2.1992243,31.563785 1.42728972,32.351243 L1.42728972,32.351243 Z" id="path-1"></path>
    </defs>
    <g id="Maquette-Desktop" stroke="none" stroke-width="1" fill="none" fill-rule="evenodd">
        <g id="Home" transform="translate(-88.000000, -40.000000)">
            <g id="Group-3" transform="translate(88.000000, 40.000000)">
                <mask id="mask-2" fill="white">
                    <use xlink:href="#path-1"></use>
                </mask>
                <g id="Clip-2"></g>
                <polygon id="Fill-1" fill="#FFFFFF" mask="url(#mask-2)" points="-9.40660748 49.3733178 158.498336 49.3733178 158.498336 -9.31628972 -9.40660748 -9.31628972"></polygon>
            </g>
        </g>
    </g>
</svg>